<svg width="60" height="60" viewBox="0 0 60 60" fill="none" xmlns="http://www.w3.org/2000/svg">
<rect width="60" height="60" fill="#F8F9FA"/>
<circle cx="30.5" cy="29.5" r="27.2" fill="#F8F9FA" stroke="black" stroke-width="0.6"/>
<path d="M28.815 9.325C29.185 9.035 29.58 8.82 30 8.68C30.42 8.54 30.93 8.47 31.53 8.47C32.13 8.47 32.655 8.605 33.105 8.875C33.565 9.145 33.795 9.435 33.795 9.745C33.795 10.125 33.58 10.34 33.15 10.39C33.05 10.17 32.825 9.97 32.475 9.79C32.125 9.6 31.71 9.505 31.23 9.505C30.56 9.505 30.005 9.745 29.565 10.225C29.125 10.695 28.905 11.385 28.905 12.295C28.905 13.205 29.13 13.9 29.58 14.38C30.03 14.86 30.57 15.1 31.2 15.1C32.2 15.1 32.875 14.775 33.225 14.125C33.415 14.125 33.575 14.185 33.705 14.305C33.835 14.415 33.9 14.56 33.9 14.74C33.9 15.09 33.66 15.41 33.18 15.7C32.7 15.98 32.15 16.12 31.53 16.12C30.92 16.12 30.4 16.05 29.97 15.91C29.55 15.76 29.16 15.54 28.8 15.25C28.44 14.95 28.155 14.55 27.945 14.05C27.735 13.55 27.63 12.97 27.63 12.31C27.63 11.64 27.735 11.05 27.945 10.54C28.165 10.02 28.455 9.615 28.815 9.325ZM28.485 26.62H28.59C28.97 26.62 29.16 26.805 29.16 27.175V31.03C29.16 32.4 29.765 33.085 30.975 33.085C31.435 33.085 31.82 32.95 32.13 32.68C32.69 32.2 32.97 31.48 32.97 30.52V27.175C32.97 26.805 33.165 26.62 33.555 26.62H33.66C33.86 26.62 34 26.665 34.08 26.755C34.17 26.835 34.215 26.975 34.215 27.175V33.445C34.215 33.645 34.17 33.79 34.08 33.88C33.99 33.96 33.845 34 33.645 34H33.555C33.165 34 32.97 33.815 32.97 33.445V32.695C32.83 33.015 32.53 33.335 32.07 33.655C31.62 33.965 31.135 34.12 30.615 34.12C28.815 34.12 27.915 33.115 27.915 31.105V27.175C27.915 26.805 28.105 26.62 28.485 26.62ZM28.65 41.485H28.77C29.15 41.485 29.34 41.67 29.34 42.04V45.625C29.54 45.285 29.85 45.005 30.27 44.785C30.69 44.565 31.15 44.455 31.65 44.455C32.58 44.455 33.33 44.77 33.9 45.4C34.48 46.02 34.77 46.97 34.77 48.25C34.77 49.52 34.43 50.485 33.75 51.145C33.07 51.795 32.26 52.12 31.32 52.12C30.39 52.12 29.46 51.945 28.53 51.595C28.38 51.535 28.27 51.46 28.2 51.37C28.13 51.28 28.095 51.145 28.095 50.965V42.04C28.095 41.67 28.28 41.485 28.65 41.485ZM31.515 45.52C30.885 45.52 30.365 45.77 29.955 46.27C29.545 46.76 29.34 47.41 29.34 48.22V50.62C29.9 50.92 30.53 51.07 31.23 51.07C31.93 51.07 32.485 50.835 32.895 50.365C33.315 49.895 33.525 49.19 33.525 48.25C33.525 46.43 32.855 45.52 31.515 45.52Z" fill="black"/>
<path d="M41.496 26.256C41.7413 26.256 41.944 26.312 42.104 26.424C42.2693 26.536 42.352 26.6773 42.352 26.848C42.352 27.0133 42.2667 27.1253 42.096 27.184C41.9627 26.96 41.7493 26.848 41.456 26.848C40.9013 26.848 40.624 27.232 40.624 28V28.08H41.608C41.8107 28.08 41.912 28.1707 41.912 28.352C41.912 28.528 41.8107 28.616 41.608 28.616H40.624V31.736C40.624 31.8427 40.6 31.92 40.552 31.968C40.504 32.0107 40.4267 32.032 40.32 32.032H40.28C40.168 32.032 40.088 32.0107 40.04 31.968C39.992 31.92 39.968 31.8427 39.968 31.736V28.616H39.552C39.44 28.616 39.36 28.6 39.312 28.568C39.2693 28.5307 39.248 28.4587 39.248 28.352C39.248 28.2453 39.272 28.1733 39.32 28.136C39.368 28.0987 39.4453 28.08 39.552 28.08H39.968V27.824C39.968 27.328 40.104 26.944 40.376 26.672C40.648 26.3947 41.0213 26.256 41.496 26.256ZM43.0162 28.056H43.0642C43.2669 28.056 43.3682 28.1547 43.3682 28.352V31.696C43.3682 31.8987 43.2669 32 43.0642 32H43.0162C42.8135 32 42.7122 31.8987 42.7122 31.696V28.352C42.7122 28.1547 42.8135 28.056 43.0162 28.056ZM42.6002 26.928C42.6002 26.8053 42.6429 26.7013 42.7282 26.616C42.8135 26.5253 42.9149 26.48 43.0322 26.48C43.1549 26.48 43.2589 26.5253 43.3442 26.616C43.4349 26.7013 43.4802 26.8053 43.4802 26.928C43.4802 27.0453 43.4375 27.1493 43.3522 27.24C43.2669 27.3253 43.1629 27.368 43.0402 27.368C42.9175 27.368 42.8135 27.3253 42.7282 27.24C42.6429 27.1547 42.6002 27.0507 42.6002 26.928ZM45.0219 26.392H45.0779C45.2806 26.392 45.3819 26.4907 45.3819 26.688V31.696C45.3819 31.8987 45.2806 32 45.0779 32H45.0219C44.9099 32 44.8299 31.976 44.7819 31.928C44.7393 31.88 44.7179 31.8027 44.7179 31.696V26.688C44.7179 26.5813 44.7393 26.5067 44.7819 26.464C44.8299 26.416 44.9099 26.392 45.0219 26.392ZM46.9036 28.056H46.9516C47.1596 28.056 47.2636 28.1573 47.2636 28.36V28.696C47.509 28.232 47.885 28 48.3916 28C48.717 28 48.9863 28.088 49.1996 28.264C49.4183 28.4347 49.5676 28.6747 49.6476 28.984C49.733 28.6747 49.8903 28.432 50.1196 28.256C50.349 28.08 50.613 27.992 50.9116 27.992C51.829 27.992 52.2876 28.528 52.2876 29.6V31.704C52.2876 31.9013 52.181 32 51.9676 32H51.9196C51.717 32 51.6156 31.9013 51.6156 31.704V29.64C51.6156 28.9093 51.3383 28.544 50.7836 28.544C50.3943 28.544 50.1276 28.6853 49.9836 28.968C49.845 29.2507 49.7756 29.6347 49.7756 30.12V31.704C49.7756 31.9013 49.6716 32 49.4636 32H49.4076C49.205 32 49.1036 31.9013 49.1036 31.704V29.64C49.1036 28.9093 48.8236 28.544 48.2636 28.544C47.597 28.544 47.2636 29.0613 47.2636 30.096V31.704C47.2636 31.9013 47.1596 32 46.9516 32H46.9036C46.701 32 46.5996 31.9013 46.5996 31.704V28.36C46.5996 28.1573 46.701 28.056 46.9036 28.056Z" fill="black"/>
</svg>
