<svg width="121" height="121" viewBox="0 0 121 121" fill="none" xmlns="http://www.w3.org/2000/svg">
<g clip-path="url('#clip0_1_2')">
<rect width="121" height="121" fill="white"></rect>
<path d="M45.5 61C45.5 75.5132 43.4443 88.5884 40.1653 97.9823C38.5233 102.686 36.6026 106.386 34.5441 108.88C32.4775 111.384 30.4272 112.5 28.5 112.5C26.5728 112.5 24.5225 111.384 22.4559 108.88C20.3974 106.386 18.4767 102.686 16.8347 97.9823C13.5557 88.5884 11.5 75.5132 11.5 61C11.5 46.4868 13.5557 33.4116 16.8347 24.0177C18.4767 19.3137 20.3974 15.6141 22.4559 13.1198C24.5225 10.6156 26.5728 9.5 28.5 9.5C30.4272 9.5 32.4775 10.6156 34.5441 13.1198C36.6026 15.6141 38.5233 19.3137 40.1653 24.0177C43.4443 33.4116 45.5 46.4868 45.5 61Z" fill="white"></path>
<path d="M45.5 61C45.5 75.5132 43.4443 88.5884 40.1653 97.9823C38.5233 102.686 36.6026 106.386 34.5441 108.88C32.4775 111.384 30.4272 112.5 28.5 112.5C26.5728 112.5 24.5225 111.384 22.4559 108.88C20.3974 106.386 18.4767 102.686 16.8347 97.9823C13.5557 88.5884 11.5 75.5132 11.5 61C11.5 46.4868 13.5557 33.4116 16.8347 24.0177C18.4767 19.3137 20.3974 15.6141 22.4559 13.1198C24.5225 10.6156 26.5728 9.5 28.5 9.5C30.4272 9.5 32.4775 10.6156 34.5441 13.1198C36.6026 15.6141 38.5233 19.3137 40.1653 24.0177C43.4443 33.4116 45.5 46.4868 45.5 61Z" stroke="black" stroke-width="3"></path>
<path d="M45.5 61C45.5 75.5132 43.4443 88.5884 40.1653 97.9823C38.5233 102.686 36.6026 106.386 34.5441 108.88C32.4775 111.384 30.4272 112.5 28.5 112.5C26.5728 112.5 24.5225 111.384 22.4559 108.88C20.3974 106.386 18.4767 102.686 16.8347 97.9823C13.5557 88.5884 11.5 75.5132 11.5 61C11.5 46.4868 13.5557 33.4116 16.8347 24.0177C18.4767 19.3137 20.3974 15.6141 22.4559 13.1198C24.5225 10.6156 26.5728 9.5 28.5 9.5C30.4272 9.5 32.4775 10.6156 34.5441 13.1198C36.6026 15.6141 38.5233 19.3137 40.1653 24.0177C43.4443 33.4116 45.5 46.4868 45.5 61Z" stroke="black" stroke-opacity="0.2" stroke-width="3"></path>
<path d="M115.968 23.7485L117.334 21.7708C117.18 21.6438 117.058 21.5039 116.966 21.3511C116.873 21.2006 116.815 21.0397 116.792 20.8683C116.765 20.6977 116.777 20.5209 116.827 20.3382C116.875 20.1538 116.963 19.968 117.093 19.781C117.319 19.4538 117.589 19.2317 117.905 19.1147C118.219 19.0001 118.565 18.9868 118.942 19.075C119.318 19.1655 119.714 19.3544 120.13 19.6417C120.57 19.9453 120.898 20.258 121.114 20.5799C121.326 20.9025 121.429 21.2277 121.424 21.5554C121.416 21.8816 121.303 22.2024 121.086 22.518C120.961 22.698 120.828 22.8439 120.685 22.9559C120.539 23.0662 120.387 23.144 120.228 23.1895C120.069 23.235 119.906 23.2484 119.739 23.2299C119.569 23.2122 119.398 23.1617 119.228 23.0785L117.876 25.0658C118.196 25.2523 118.565 25.3809 118.982 25.4516C119.397 25.5207 119.831 25.5116 120.285 25.4245C120.735 25.3381 121.177 25.1519 121.613 24.8659C122.049 24.5799 122.448 24.1739 122.812 23.648C123.267 22.9888 123.534 22.2997 123.613 21.5807C123.69 20.8641 123.559 20.1641 123.219 19.4808C122.878 18.7999 122.31 18.185 121.516 17.6361C120.716 17.0839 119.936 16.7733 119.176 16.7041C118.414 16.6332 117.711 16.7628 117.069 17.0927C116.425 17.421 115.88 17.9077 115.434 18.5529C115.121 19.0064 114.895 19.4664 114.756 19.933C114.616 20.3996 114.567 20.859 114.606 21.3112C114.644 21.7618 114.775 22.1942 115 22.6084C115.225 23.0227 115.548 23.4027 115.968 23.7485ZM114.49 35.4871L107.309 30.5276L105.575 33.0382C105.23 33.5384 105.031 34.0108 104.98 34.4551C104.926 34.8979 104.989 35.2989 105.169 35.658C105.347 36.0156 105.611 36.3154 105.962 36.5576C106.271 36.7707 106.563 36.8917 106.84 36.9207C107.115 36.952 107.373 36.9192 107.612 36.8222C107.85 36.7276 108.069 36.5969 108.267 36.4299L108.337 36.4783C108.199 36.7078 108.124 36.9819 108.111 37.3009C108.097 37.6198 108.17 37.9445 108.329 38.2749C108.487 38.6053 108.756 38.9013 109.134 39.1628C109.494 39.4115 109.875 39.5532 110.275 39.5882C110.676 39.6231 111.082 39.5222 111.494 39.2855C111.906 39.0487 112.308 38.6475 112.698 38.0818L114.49 35.4871ZM113.118 35.8239L111.927 37.5491C111.535 38.1171 111.146 38.4445 110.762 38.5311C110.373 38.6185 110.021 38.5533 109.706 38.3353C109.463 38.1674 109.281 37.9505 109.161 37.6845C109.039 37.417 108.994 37.1259 109.029 36.8112C109.061 36.4949 109.185 36.1802 109.401 35.8669L110.622 34.0997L113.118 35.8239ZM109.864 33.5766L108.75 35.1896C108.57 35.4514 108.355 35.652 108.107 35.7913C107.857 35.933 107.596 36.0012 107.323 35.996C107.049 35.9931 106.786 35.9044 106.533 35.7301C106.218 35.5121 106.026 35.2174 105.958 34.8459C105.888 34.4728 106.017 34.0478 106.347 33.5709L107.48 31.9299L109.864 33.5766ZM108.137 44.6862L100.956 39.7267L97.9822 44.0325L98.7537 44.5653L101.127 41.129L103.553 42.8048L101.403 45.9185L102.174 46.4512L104.325 43.3375L107.537 45.5557L108.137 44.6862ZM104.212 50.3692L98.8264 46.6496L98.2549 47.4771L103.641 51.1967L104.212 50.3692ZM97.6382 46.4504C97.7496 46.2891 97.7907 46.1121 97.7616 45.9193C97.7308 45.7289 97.6383 45.5804 97.484 45.4739C97.3297 45.3673 97.1581 45.3334 96.9691 45.372C96.7785 45.413 96.6275 45.5142 96.5161 45.6755C96.4048 45.8368 96.3644 46.0126 96.3952 46.2031C96.4243 46.3958 96.5161 46.5455 96.6703 46.652C96.8246 46.7586 96.9971 46.7913 97.1876 46.7503C97.3766 46.7117 97.5268 46.6117 97.6382 46.4504ZM94.8414 48.5804L102.023 53.5399L102.594 52.7123L95.4129 47.7529L94.8414 48.5804ZM100.976 55.0555L95.5899 51.3359L95.0378 52.1354L95.8793 52.7165L95.8309 52.7867C95.4659 52.7003 95.1175 52.7273 94.7858 52.8676C94.4518 53.0064 94.1637 53.251 93.9215 53.6017C93.6761 53.957 93.5526 54.3084 93.5508 54.6559C93.5451 55.0041 93.64 55.3441 93.8355 55.676L93.7968 55.7321C93.4233 55.6779 93.0595 55.7322 92.7054 55.895C92.3489 56.0562 92.0375 56.3297 91.7711 56.7154C91.4386 57.1969 91.3173 57.695 91.4074 58.2094C91.4951 58.7223 91.8557 59.1975 92.4892 59.635L96.0938 62.1244L96.6653 61.2969L93.0607 58.8075C92.6633 58.533 92.4544 58.2282 92.4339 57.8929C92.4134 57.5577 92.5048 57.2428 92.7082 56.9483C92.9698 56.5696 93.2869 56.3553 93.6597 56.3055C94.0301 56.254 94.3895 56.3486 94.7378 56.5891L98.2442 59.0107L98.8254 58.1692L95.1366 55.6217C94.8304 55.4102 94.6524 55.1405 94.6026 54.8126C94.5505 54.4832 94.6326 54.1618 94.8489 53.8486C94.9975 53.6335 95.1936 53.472 95.4373 53.3641C95.6794 53.2586 95.9416 53.2188 96.2241 53.2447C96.5026 53.2713 96.774 53.3758 97.0381 53.5583L100.404 55.883L100.976 55.0555ZM91.523 68.7428L93.0534 66.5267L85.8723 61.5673L84.274 63.8815C83.7929 64.5781 83.525 65.2735 83.4703 65.9676C83.4132 66.6602 83.5611 67.3233 83.914 67.9572C84.2646 68.5894 84.8115 69.1622 85.5549 69.6756C86.3029 70.1922 87.0389 70.5038 87.763 70.6102C88.4847 70.715 89.1664 70.6127 89.8082 70.3033C90.4477 69.9923 91.0193 69.4721 91.523 68.7428ZM91.6815 66.8636L90.7903 68.1539C90.3803 68.7477 89.9259 69.1607 89.4272 69.3928C88.9285 69.625 88.4014 69.6908 87.8459 69.5903C87.2904 69.4898 86.7205 69.2377 86.1361 68.8341C85.5563 68.4337 85.1226 67.9944 84.835 67.516C84.545 67.0361 84.4177 66.5305 84.4532 65.9991C84.4864 65.4662 84.6967 64.9192 85.0842 64.3581L86.0432 62.9696L91.6815 66.8636ZM87.2612 75.1836C87.4969 74.8423 87.6466 74.4882 87.7101 74.1212C87.7713 73.7526 87.7357 73.4018 87.6033 73.0686C87.4685 72.7339 87.2258 72.4454 86.8751 72.2032C86.5666 71.9901 86.2745 71.8782 85.9988 71.8673C85.7209 71.8549 85.4567 71.9124 85.2064 72.0399C84.9561 72.1674 84.7193 72.3353 84.496 72.5436C84.2688 72.7527 84.0524 72.971 83.8469 73.1985C83.5788 73.4967 83.3641 73.7402 83.2026 73.9291C83.0371 74.1186 82.8952 74.2416 82.7769 74.298C82.6569 74.3567 82.5303 74.34 82.3971 74.248L82.369 74.2286C82.0231 73.9897 81.8196 73.7094 81.7587 73.3876C81.6962 73.0682 81.7965 72.718 82.0596 72.337C82.3325 71.9419 82.6329 71.6919 82.9608 71.587C83.2888 71.4821 83.5825 71.4518 83.8418 71.4962L84.1037 70.5171C83.6796 70.4313 83.2956 70.4424 82.9518 70.5502C82.6041 70.6588 82.298 70.8271 82.0334 71.0552C81.7648 71.2841 81.5369 71.5341 81.3497 71.8052C81.2302 71.9782 81.114 72.1915 81.0011 72.4449C80.8843 72.6991 80.8163 72.975 80.7972 73.2726C80.7765 73.5725 80.8452 73.8805 81.0031 74.1968C81.161 74.513 81.4539 74.8188 81.8817 75.1143L85.4302 77.5649L86.0017 76.7374L85.2723 76.2337L85.3014 76.1917C85.457 76.2163 85.6467 76.2091 85.8703 76.1703C86.094 76.1314 86.3276 76.0355 86.5713 75.8827C86.8149 75.7299 87.0449 75.4968 87.2612 75.1836ZM86.4307 74.7964C86.2047 75.1237 85.9499 75.3552 85.6663 75.4908C85.3812 75.6287 85.0973 75.6847 84.8149 75.6588C84.5308 75.6353 84.2765 75.546 84.0521 75.391L83.2947 74.8679C83.361 74.8619 83.4529 74.8114 83.5703 74.7164C83.6837 74.6221 83.8066 74.5067 83.9388 74.3702C84.0671 74.2344 84.1907 74.1005 84.3095 73.9685C84.4243 73.8372 84.5183 73.7312 84.5913 73.6504C84.7679 73.4547 84.9523 73.2852 85.1446 73.1418C85.3329 72.9991 85.5286 72.9132 85.7316 72.8842C85.9306 72.856 86.1353 72.9145 86.3457 73.0598C86.6332 73.2584 86.7772 73.5149 86.7775 73.8293C86.7739 74.1445 86.6583 74.4668 86.4307 74.7964ZM77.3836 77.698L78.0848 78.1823L80.0125 75.3912L79.3112 74.9069L77.3836 77.698ZM77.459 74.8292L76.8875 75.6567L82.0209 79.202C82.2546 79.3634 82.4066 79.5184 82.4766 79.6669C82.5427 79.8162 82.5585 79.9583 82.524 80.0932C82.4855 80.2289 82.4243 80.3576 82.3404 80.4791C82.2774 80.5703 82.2211 80.6419 82.1713 80.6938C82.1193 80.7442 82.0777 80.7845 82.0464 80.8147L82.6736 81.4964C82.7333 81.4548 82.8085 81.3911 82.8989 81.3051C82.9917 81.2207 83.0914 81.1014 83.1979 80.9471C83.3594 80.7133 83.4673 80.4495 83.5218 80.1557C83.5747 79.8642 83.5491 79.5738 83.4451 79.2845C83.3395 78.9975 83.13 78.7458 82.8168 78.5295L77.459 74.8292ZM80.9414 84.3345C81.1771 83.9932 81.3267 83.639 81.3903 83.2721C81.4515 82.9035 81.4159 82.5526 81.2834 82.2195C81.1486 81.8847 80.9059 81.5963 80.5553 81.3541C80.2467 81.141 79.9546 81.029 79.679 81.0182C79.401 81.0058 79.1369 81.0633 78.8866 81.1908C78.6362 81.3183 78.3994 81.4862 78.1762 81.6945C77.9489 81.9035 77.7326 82.1218 77.5271 82.3494C77.259 82.6476 77.0442 82.8911 76.8827 83.0799C76.7173 83.2695 76.5754 83.3925 76.457 83.4488C76.3371 83.5075 76.2105 83.4909 76.0772 83.3989L76.0492 83.3795C75.7032 83.1406 75.4998 82.8602 75.4389 82.5385C75.3763 82.2191 75.4766 81.8689 75.7398 81.4879C76.0126 81.0928 76.313 80.8428 76.641 80.7379C76.969 80.6329 77.2626 80.6027 77.5219 80.6471L77.7839 79.6679C77.3597 79.5822 76.9758 79.5932 76.632 79.7011C76.2843 79.8096 75.9781 79.978 75.7135 80.2061C75.445 80.4349 75.2171 80.685 75.0298 80.9561C74.9104 81.1291 74.7942 81.3423 74.6813 81.5958C74.5644 81.85 74.4965 82.1259 74.4774 82.4234C74.4567 82.7233 74.5253 83.0314 74.6833 83.3476C74.8412 83.6639 75.1341 83.9697 75.5618 84.2651L79.1103 86.7158L79.6818 85.8883L78.9525 85.3846L78.9816 85.3425C79.1372 85.3671 79.3268 85.36 79.5505 85.3211C79.7741 85.2822 80.0078 85.1864 80.2514 85.0336C80.4951 84.8807 80.7251 84.6477 80.9414 84.3345ZM80.1109 83.9473C79.8848 84.2746 79.63 84.506 79.3465 84.6416C79.0613 84.7796 78.7775 84.8356 78.495 84.8097C78.2109 84.7861 77.9567 84.6969 77.7323 84.5419L76.9749 84.0188C77.0412 84.0128 77.133 83.9623 77.2504 83.8673C77.3639 83.773 77.4867 83.6576 77.619 83.5211C77.7473 83.3853 77.8709 83.2514 77.9897 83.1194C78.1045 82.9881 78.1984 82.882 78.2715 82.8013C78.4481 82.6056 78.6325 82.436 78.8247 82.2926C79.0131 82.1499 79.2087 82.0641 79.4117 82.0351C79.6108 82.0069 79.8155 82.0654 80.0259 82.2107C80.3134 82.4092 80.4573 82.6658 80.4577 82.9802C80.4541 83.2953 80.3385 83.6177 80.1109 83.9473Z" fill="black"></path>
<path d="M109.02 28.0503L108.567 28.706L113.322 31.9897C113.81 32.3271 114.327 32.5145 114.871 32.5518C115.412 32.5875 115.935 32.4774 116.44 32.2217C116.94 31.9667 117.377 31.5693 117.75 31.0293C118.122 30.4916 118.337 29.9416 118.398 29.3791C118.458 28.8167 118.376 28.2885 118.151 27.7947C117.926 27.3008 117.569 26.8852 117.08 26.5478L112.326 23.264L111.873 23.9197L116.582 27.172C116.963 27.4351 117.244 27.7554 117.425 28.1326C117.604 28.5083 117.673 28.9094 117.63 29.3358C117.586 29.7645 117.42 30.187 117.133 30.6031C116.846 31.0192 116.509 31.3237 116.124 31.5168C115.739 31.7098 115.339 31.788 114.926 31.7513C114.509 31.7153 114.11 31.5657 113.729 31.3025L109.02 28.0503Z" fill="#436CFF"></path>
</g>
<defs>
<clipPath id="clip0_1_2">
<rect width="121" height="121" fill="white"></rect>
</clipPath>
</defs>
</svg>
