<svg width="70" height="70" viewBox="0 0 70 70" fill="none" xmlns="http://www.w3.org/2000/svg">
<rect width="70" height="70" fill="#F8F9FA"></rect>
<circle cx="35.5" cy="34.5" r="27.2" fill="#F8F9FA" stroke="black" stroke-width="0.6"></circle>
<path d="M33.968 10.44C34.1653 10.2853 34.376 10.1707 34.6 10.096C34.824 10.0213 35.096 9.984 35.416 9.984C35.736 9.984 36.016 10.056 36.256 10.2C36.5013 10.344 36.624 10.4987 36.624 10.664C36.624 10.8667 36.5093 10.9813 36.28 11.008C36.2267 10.8907 36.1067 10.784 35.92 10.688C35.7333 10.5867 35.512 10.536 35.256 10.536C34.8987 10.536 34.6027 10.664 34.368 10.92C34.1333 11.1707 34.016 11.5387 34.016 12.024C34.016 12.5093 34.136 12.88 34.376 13.136C34.616 13.392 34.904 13.52 35.24 13.52C35.7733 13.52 36.1333 13.3467 36.32 13C36.4213 13 36.5067 13.032 36.576 13.096C36.6453 13.1547 36.68 13.232 36.68 13.328C36.68 13.5147 36.552 13.6853 36.296 13.84C36.04 13.9893 35.7467 14.064 35.416 14.064C35.0907 14.064 34.8133 14.0267 34.584 13.952C34.36 13.872 34.152 13.7547 33.96 13.6C33.768 13.44 33.616 13.2267 33.504 12.96C33.392 12.6933 33.336 12.384 33.336 12.032C33.336 11.6747 33.392 11.36 33.504 11.088C33.6213 10.8107 33.776 10.5947 33.968 10.44ZM33.792 19.064H33.848C34.0507 19.064 34.152 19.1627 34.152 19.36V21.416C34.152 22.1467 34.4747 22.512 35.12 22.512C35.3653 22.512 35.5707 22.44 35.736 22.296C36.0347 22.04 36.184 21.656 36.184 21.144V19.36C36.184 19.1627 36.288 19.064 36.496 19.064H36.552C36.6587 19.064 36.7333 19.088 36.776 19.136C36.824 19.1787 36.848 19.2533 36.848 19.36V22.704C36.848 22.8107 36.824 22.888 36.776 22.936C36.728 22.9787 36.6507 23 36.544 23H36.496C36.288 23 36.184 22.9013 36.184 22.704V22.304C36.1093 22.4747 35.9493 22.6453 35.704 22.816C35.464 22.9813 35.2053 23.064 34.928 23.064C33.968 23.064 33.488 22.528 33.488 21.456V19.36C33.488 19.1627 33.5893 19.064 33.792 19.064ZM33.88 26.392H33.944C34.1467 26.392 34.248 26.4907 34.248 26.688V28.6C34.3547 28.4187 34.52 28.2693 34.744 28.152C34.968 28.0347 35.2133 27.976 35.48 27.976C35.976 27.976 36.376 28.144 36.68 28.48C36.9893 28.8107 37.144 29.3173 37.144 30C37.144 30.6773 36.9627 31.192 36.6 31.544C36.2373 31.8907 35.8053 32.064 35.304 32.064C34.808 32.064 34.312 31.9707 33.816 31.784C33.736 31.752 33.6773 31.712 33.64 31.664C33.6027 31.616 33.584 31.544 33.584 31.448V26.688C33.584 26.4907 33.6827 26.392 33.88 26.392ZM35.408 28.544C35.072 28.544 34.7947 28.6773 34.576 28.944C34.3573 29.2053 34.248 29.552 34.248 29.984V31.264C34.5467 31.424 34.8827 31.504 35.256 31.504C35.6293 31.504 35.9253 31.3787 36.144 31.128C36.368 30.8773 36.48 30.5013 36.48 30C36.48 29.0293 36.1227 28.544 35.408 28.544Z" fill="black"></path>
<path d="M33.496 45.256C33.7413 45.256 33.944 45.312 34.104 45.424C34.2693 45.536 34.352 45.6773 34.352 45.848C34.352 46.0133 34.2667 46.1253 34.096 46.184C33.9627 45.96 33.7493 45.848 33.456 45.848C32.9013 45.848 32.624 46.232 32.624 47V47.08H33.608C33.8107 47.08 33.912 47.1707 33.912 47.352C33.912 47.528 33.8107 47.616 33.608 47.616H32.624V50.736C32.624 50.8427 32.6 50.92 32.552 50.968C32.504 51.0107 32.4267 51.032 32.32 51.032H32.28C32.168 51.032 32.088 51.0107 32.04 50.968C31.992 50.92 31.968 50.8427 31.968 50.736V47.616H31.552C31.44 47.616 31.36 47.6 31.312 47.568C31.2693 47.5307 31.248 47.4587 31.248 47.352C31.248 47.2453 31.272 47.1733 31.32 47.136C31.368 47.0987 31.4453 47.08 31.552 47.08H31.968V46.824C31.968 46.328 32.104 45.944 32.376 45.672C32.648 45.3947 33.0213 45.256 33.496 45.256ZM35.0162 47.056H35.0642C35.2669 47.056 35.3682 47.1547 35.3682 47.352V50.696C35.3682 50.8987 35.2669 51 35.0642 51H35.0162C34.8135 51 34.7122 50.8987 34.7122 50.696V47.352C34.7122 47.1547 34.8135 47.056 35.0162 47.056ZM34.6002 45.928C34.6002 45.8053 34.6429 45.7013 34.7282 45.616C34.8135 45.5253 34.9149 45.48 35.0322 45.48C35.1549 45.48 35.2589 45.5253 35.3442 45.616C35.4349 45.7013 35.4802 45.8053 35.4802 45.928C35.4802 46.0453 35.4375 46.1493 35.3522 46.24C35.2669 46.3253 35.1629 46.368 35.0402 46.368C34.9175 46.368 34.8135 46.3253 34.7282 46.24C34.6429 46.1547 34.6002 46.0507 34.6002 45.928ZM37.0219 45.392H37.0779C37.2806 45.392 37.3819 45.4907 37.3819 45.688V50.696C37.3819 50.8987 37.2806 51 37.0779 51H37.0219C36.9099 51 36.8299 50.976 36.7819 50.928C36.7393 50.88 36.7179 50.8027 36.7179 50.696V45.688C36.7179 45.5813 36.7393 45.5067 36.7819 45.464C36.8299 45.416 36.9099 45.392 37.0219 45.392ZM31.888 56.056H31.936C32.144 56.056 32.248 56.1573 32.248 56.36V56.696C32.4933 56.232 32.8693 56 33.376 56C33.7013 56 33.9707 56.088 34.184 56.264C34.4027 56.4347 34.552 56.6747 34.632 56.984C34.7173 56.6747 34.8747 56.432 35.104 56.256C35.3333 56.08 35.5973 55.992 35.896 55.992C36.8133 55.992 37.272 56.528 37.272 57.6V59.704C37.272 59.9013 37.1653 60 36.952 60H36.904C36.7013 60 36.6 59.9013 36.6 59.704V57.64C36.6 56.9093 36.3227 56.544 35.768 56.544C35.3787 56.544 35.112 56.6853 34.968 56.968C34.8293 57.2507 34.76 57.6347 34.76 58.12V59.704C34.76 59.9013 34.656 60 34.448 60H34.392C34.1893 60 34.088 59.9013 34.088 59.704V57.64C34.088 56.9093 33.808 56.544 33.248 56.544C32.5813 56.544 32.248 57.0613 32.248 58.096V59.704C32.248 59.9013 32.144 60 31.936 60H31.888C31.6853 60 31.584 59.9013 31.584 59.704V56.36C31.584 56.1573 31.6853 56.056 31.888 56.056Z" fill="black"></path>
</svg>
